# xmcd
#
# Track frame offsets: 
#        150
#        31932
#        46370
#        59955
#        86227
#        110720
#        125782
#        139532
#        152440
#        168180
#
# Disc length: 2429 seconds
#
# Revision: 1
# Processed by: cddbd v1.5.2PL0 Copyright (c) Steve Scherf et al.
# Submitted via: ExactAudioCopy v0.95b2
#
DISCID=8b097b0a
DTITLE=Johnnie Taylor - One Step Beyond
DYEAR=1970
DGENRE=R&B
TTITLE0=Time After Time
TTITLE1=Party Life
TTITLE2=Will You Love Me Forever
TTITLE3=I Am Somebody (Parts 1 and 2)
TTITLE4=I Don't Wanna Lose You (Parts 1 and 2)
TTITLE5=Don't Take My Sunshine
TTITLE6=Jody's Got Your Girl and Gone
TTITLE7=A Fool Like Me
TTITLE8=Steal Away
TTITLE9=Friday Night
EXTD=Audio CD (September 3, 1996]\nNumber of Discs: 1 \nLabel: Stax \n
EXTD=Catalog: #8598 \nASIN: B000000ZMH
EXTT0=
EXTT1=
EXTT2=
EXTT3=
EXTT4=
EXTT5=
EXTT6=
EXTT7=
EXTT8=
EXTT9=
PLAYORDER=
